<?xml version="1.0" encoding="UTF-8"?>
<svg width="487px" height="487px" viewBox="0 0 487 487" version="1.1" xmlns="http://www.w3.org/2000/svg" xmlns:xlink="http://www.w3.org/1999/xlink">
    <g id="Page-1" stroke="none" stroke-width="1" fill="none" fill-rule="evenodd">
        <circle id="Oval" fill="#DC3C37" cx="243.5" cy="243.5" r="243.5" />
        <path d="M243,106 C192.272162,106 151,147.122705 151,197.666846 C151,212.840186 154.807391,227.884619 162.045369,241.228564 L237.96894,378.045898 C238.97968,379.869922 240.905746,381 243,381 C245.094254,381 247.02032,379.869922 248.03106,378.045898 L323.982662,241.183447 C331.192609,227.884619 335,212.839648 335,197.666309 C335,147.122705 293.727838,106 243,106 Z M242.5,243 C217.411629,243 197,222.588371 197,197.5 C197,172.411629 217.411629,152 242.5,152 C267.588371,152 288,172.411629 288,197.5 C288,222.588371 267.588371,243 242.5,243 Z" id="Shape" fill="#FFFFFF" fill-rule="nonzero" />
    </g>
</svg>
