<?xml version="1.0" encoding="UTF-8"?>
<svg width="1769px" height="264px" viewBox="0 0 1769 264" version="1.1" xmlns="http://www.w3.org/2000/svg"
     xmlns:xlink="http://www.w3.org/1999/xlink">
    <g stroke="none" stroke-width="1" fill="none" fill-rule="evenodd">
        <path d="M75.5,0 C33.8700891,0 0,33.4963125 0,74.6668125 C0,87.0261875 3.1245437,99.2805625 9.06440612,110.149813 L71.3712493,221.59375 C72.2007154,223.0795 73.7813461,224 75.5,224 C77.2186539,224 78.7992846,223.0795 79.6287507,221.59375 L141.958598,110.113063 C147.875456,99.2805625 151,87.02575 151,74.666375 C151,33.4963125 117.129911,0 75.5,0 Z M74.8760331,111.381215 C54.2329811,111.381215 37.4380165,94.725743 37.4380165,74.2541436 C37.4380165,53.7825443 54.2329811,37.1270718 74.8760331,37.1270718 C95.519085,37.1270718 112.31405,53.7825443 112.31405,74.2541436 C112.31405,94.725743 95.519085,111.381215 74.8760331,111.381215 Z"
              id="Shape" fill="#DC3C37" fill-rule="nonzero" />
        <path d="M321.697512,110.925926 C321.697512,113.296296 321.397356,116.407407 321.247278,118.777778 L264.217729,118.777778 C266.618974,125 272.321928,128.259259 280.726283,128.259259 C288.230171,128.259259 292.432348,126.333333 297.835148,122.333333 L315.544323,139.962963 C307.590202,148.555556 296.034215,153 279.675739,153 C249.510109,153 230,135.074074 230,110.925926 C230,86.3333333 249.960342,69 276.524106,69 C300.836703,69 321.697512,83.5185185 321.697512,110.925926 Z M276.824261,91.8148148 C269.770607,91.8148148 264.968118,95.8148148 263.617418,102.62963 L290.031104,102.62963 C288.680404,95.8148148 283.727838,91.8148148 276.824261,91.8148148 Z M389.382582,69 C408.292379,69 423,79.8148148 423,105.296296 L423,151.518519 L389.082426,151.518519 L389.082426,111.074074 C389.082426,101 385.180404,97.1481481 379.027216,97.1481481 C372.123639,97.1481481 366.270607,101.444444 366.270607,113.444444 L366.270607,151.518519 L332.353033,151.518519 L332.353033,70.4814815 L364.619751,70.4814815 L364.619751,78.4814815 C371.073095,72.1111111 379.777605,69 389.382582,69 Z"
              id="en" fill="#DC3C37" />
        <path d="M491.870264,69.2748768 C513.367381,69.2748768 531.557249,85.3418719 531.557249,111.525123 C531.557249,137.708374 513.367381,153.626601 491.870264,153.626601 C482.850494,153.626601 475.935338,151.395074 470.974465,146.634483 L470.974465,181 L437,181 L437,70.7625616 L469.32084,70.7625616 L469.32084,77.4571429 C474.281713,71.9527094 481.647858,69.2748768 491.870264,69.2748768 Z M483.752471,127.44335 C491.268946,127.44335 497.131796,122.087685 497.131796,111.525123 C497.131796,100.962562 491.268946,95.4581281 483.752471,95.4581281 C476.235997,95.4581281 470.373147,100.962562 470.373147,111.525123 C470.373147,122.087685 476.235997,127.44335 483.752471,127.44335 Z M574.551483,79.5399015 C580.564662,72.6965517 589.734761,69.2748768 601.159802,69.2748768 L601.159802,99.0285714 C598.153213,98.582266 596.0486,98.4334975 593.643328,98.4334975 C583.420923,98.4334975 576.205107,103.04532 576.205107,115.988177 L576.205107,152.138916 L542.230643,152.138916 L542.230643,70.7625616 L574.551483,70.7625616 L574.551483,79.5399015 Z M697.521005,111.376355 C697.521005,113.75665 697.220346,116.880788 697.070016,119.261084 L639.944811,119.261084 C642.350082,125.50936 648.062603,128.782266 656.481054,128.782266 C663.997529,128.782266 668.206755,126.848276 673.618616,122.831527 L691.357496,140.534975 C683.390033,149.163547 671.814662,153.626601 655.428748,153.626601 C625.212521,153.626601 605.669687,135.625616 605.669687,111.376355 C605.669687,86.6807882 625.663509,69.2748768 652.271829,69.2748768 C676.625206,69.2748768 697.521005,83.8541872 697.521005,111.376355 Z M652.572488,92.1852217 C645.507002,92.1852217 640.696458,96.2019704 639.343493,103.04532 L665.801483,103.04532 C664.448517,96.2019704 659.487644,92.1852217 652.572488,92.1852217 Z M817.032949,69.2748768 C835.673806,69.2748768 849.804778,80.1349754 849.804778,105.723153 L849.804778,152.138916 L815.830313,152.138916 L815.830313,111.525123 C815.830313,101.408867 812.072076,97.5408867 806.660214,97.5408867 C800.647035,97.5408867 795.98682,101.557635 795.98682,112.417734 L795.98682,152.138916 L762.012356,152.138916 L762.012356,111.525123 C762.012356,101.408867 758.554778,97.5408867 752.842257,97.5408867 C746.829077,97.5408867 742.168863,101.557635 742.168863,112.417734 L742.168863,152.138916 L708.194399,152.138916 L708.194399,70.7625616 L740.515239,70.7625616 L740.515239,78.3497537 C746.678748,72.2502463 754.79654,69.2748768 763.81631,69.2748768 C774.489703,69.2748768 783.810132,73.1428571 789.522652,81.6226601 C796.13715,73.737931 805.758237,69.2748768 817.032949,69.2748768 Z M881.5243,64.2167488 C869.046952,64.2167488 861.079489,56.7783251 861.079489,47.1083744 C861.079489,37.4384236 869.046952,30 881.5243,30 C894.001647,30 901.96911,36.8433498 901.96911,46.5133005 C901.96911,56.7783251 894.001647,64.2167488 881.5243,64.2167488 Z M864.537068,152.138916 L864.537068,70.7625616 L898.511532,70.7625616 L898.511532,152.138916 L864.537068,152.138916 Z M1001.03624,111.376355 C1001.03624,113.75665 1000.73558,116.880788 1000.58526,119.261084 L943.460049,119.261084 C945.865321,125.50936 951.577842,128.782266 959.996293,128.782266 C967.512768,128.782266 971.721993,126.848276 977.133855,122.831527 L994.872735,140.534975 C986.905272,149.163547 975.329901,153.626601 958.943987,153.626601 C928.727759,153.626601 909.184926,135.625616 909.184926,111.376355 C909.184926,86.6807882 929.178748,69.2748768 955.787068,69.2748768 C980.140445,69.2748768 1001.03624,83.8541872 1001.03624,111.376355 Z M956.087727,92.1852217 C949.022241,92.1852217 944.211697,96.2019704 942.858731,103.04532 L969.316722,103.04532 C967.963756,96.2019704 963.002883,92.1852217 956.087727,92.1852217 Z M1044.03048,79.5399015 C1050.04366,72.6965517 1059.21376,69.2748768 1070.6388,69.2748768 L1070.6388,99.0285714 C1067.63221,98.582266 1065.52759,98.4334975 1063.12232,98.4334975 C1052.89992,98.4334975 1045.6841,103.04532 1045.6841,115.988177 L1045.6841,152.138916 L1011.70964,152.138916 L1011.70964,70.7625616 L1044.03048,70.7625616 L1044.03048,79.5399015 Z M1167,111.376355 C1167,113.75665 1166.69934,116.880788 1166.54901,119.261084 L1109.42381,119.261084 C1111.82908,125.50936 1117.5416,128.782266 1125.96005,128.782266 C1133.47652,128.782266 1137.68575,126.848276 1143.09761,122.831527 L1160.83649,140.534975 C1152.86903,149.163547 1141.29366,153.626601 1124.90774,153.626601 C1094.69152,153.626601 1075.14868,135.625616 1075.14868,111.376355 C1075.14868,86.6807882 1095.1425,69.2748768 1121.75082,69.2748768 C1146.1042,69.2748768 1167,83.8541872 1167,111.376355 Z M1122.05148,92.1852217 C1114.986,92.1852217 1110.17545,96.2019704 1108.82249,103.04532 L1135.28048,103.04532 C1133.92751,96.2019704 1128.96664,92.1852217 1122.05148,92.1852217 Z"
              id="premiere" fill="#004AAD" />
        <path d="M1178,151.748293 L1178,41.715122 L1211.98626,41.715122 L1211.98626,151.748293 L1178,151.748293 Z M1244.01756,64.1073171 C1231.53588,64.1073171 1223.56565,56.6926829 1223.56565,47.0536585 C1223.56565,37.4146341 1231.53588,30 1244.01756,30 C1256.49924,30 1264.46947,36.8214634 1264.46947,46.4604878 C1264.46947,56.6926829 1256.49924,64.1073171 1244.01756,64.1073171 Z M1227.02443,151.748293 L1227.02443,70.6321951 L1261.01069,70.6321951 L1261.01069,151.748293 L1227.02443,151.748293 Z M1335.6,70.6321951 L1367.93206,70.6321951 L1367.93206,135.58439 C1367.93206,167.022439 1349.28473,182 1317.85496,182 C1301.61374,182 1286.87634,178.589268 1276.65038,171.916098 L1288.07939,149.079024 C1294.5458,153.972683 1305.52366,157.086829 1314.39618,157.086829 C1328.38168,157.086829 1333.9458,151.006829 1333.9458,140.181463 L1333.9458,138.698537 C1328.83282,144.481951 1321.31374,147.299512 1311.23817,147.299512 C1290.33511,147.299512 1271.68779,132.173659 1271.68779,108.150244 C1271.68779,84.1268293 1290.33511,69.1492683 1311.23817,69.1492683 C1322.51679,69.1492683 1330.48702,72.56 1335.6,79.8263415 L1335.6,70.6321951 Z M1320.26107,121.2 C1328.2313,121.2 1334.24656,116.009756 1334.24656,108.150244 C1334.24656,100.290732 1328.2313,95.2487805 1320.26107,95.2487805 C1312.29084,95.2487805 1306.12519,100.290732 1306.12519,108.150244 C1306.12519,116.009756 1312.29084,121.2 1320.26107,121.2 Z M1440.11527,69.1492683 C1459.06336,69.1492683 1473.80076,79.9746341 1473.80076,105.480976 L1473.80076,151.748293 L1439.8145,151.748293 L1439.8145,111.26439 C1439.8145,101.180488 1435.90458,97.324878 1429.73893,97.324878 C1422.82137,97.324878 1416.95649,101.625366 1416.95649,113.637073 L1416.95649,151.748293 L1382.97023,151.748293 L1382.97023,70.6321951 L1415.30229,70.6321951 L1415.30229,78.64 C1421.7687,72.2634146 1430.49084,69.1492683 1440.11527,69.1492683 Z M1577.56412,111.116098 C1577.56412,113.48878 1577.26336,116.602927 1577.11298,118.97561 L1519.96794,118.97561 C1522.37405,125.203902 1528.08855,128.466341 1536.50992,128.466341 C1544.02901,128.466341 1548.23969,126.538537 1553.65344,122.534634 L1571.39847,140.181463 C1563.42824,148.782439 1551.84885,153.23122 1535.45725,153.23122 C1505.23053,153.23122 1485.68092,135.287805 1485.68092,111.116098 C1485.68092,86.4995122 1505.68168,69.1492683 1532.29924,69.1492683 C1556.66107,69.1492683 1577.56412,83.6819512 1577.56412,111.116098 Z M1532.6,91.9863415 C1525.53206,91.9863415 1520.71985,95.9902439 1519.36641,102.811707 L1545.83359,102.811707 C1544.48015,95.9902439 1539.51756,91.9863415 1532.6,91.9863415 Z M1603.58015,153.23122 C1592.30153,153.23122 1583.72977,145.223415 1583.72977,133.953171 C1583.72977,122.534634 1592.30153,114.971707 1603.58015,114.971707 C1614.85878,114.971707 1623.43053,122.534634 1623.43053,133.953171 C1623.43053,145.223415 1614.85878,153.23122 1603.58015,153.23122 Z M1670.65038,74.9326829 L1670.65038,75.0809756 L1688.5458,75.0809756 L1688.5458,99.5492683 L1671.70305,99.5492683 L1671.70305,151.748293 L1637.71679,151.748293 L1637.71679,99.5492683 L1626.43817,99.5492683 L1626.43817,75.0809756 L1637.71679,75.0809756 L1637.71679,74.6360976 C1637.71679,53.7268293 1650.95038,40.2321951 1674.40992,40.2321951 C1681.62824,40.2321951 1689.59847,41.5668293 1694.56107,44.2360976 L1686.44046,67.5180488 C1684.18473,66.48 1681.47786,65.5902439 1678.77099,65.5902439 C1673.95878,65.5902439 1670.65038,68.4078049 1670.65038,74.9326829 Z M1742.38244,79.3814634 C1748.39771,72.56 1757.57099,69.1492683 1769,69.1492683 L1769,98.8078049 C1765.99237,98.3629268 1763.88702,98.2146341 1761.48092,98.2146341 C1751.25496,98.2146341 1744.03664,102.811707 1744.03664,115.713171 L1744.03664,151.748293 L1710.05038,151.748293 L1710.05038,70.6321951 L1742.38244,70.6321951 L1742.38244,79.3814634 Z"
              id="ligne.fr" fill="#DC3C37" />
        <path d="M272.624,263 L268.912,263 L258.224,248.024 C256.816,248.216 255.408,248.344 253.872,248.344 L241.072,248.344 L241.072,263 L237.808,263 L237.808,218.2 L253.872,218.2 C265.136,218.2 271.92,223.832 271.92,233.304 C271.92,240.408 268.08,245.336 261.424,247.32 L272.624,263 Z M241.072,245.464 L253.872,245.464 C263.472,245.464 268.592,240.984 268.592,233.304 C268.592,225.56 263.472,221.144 253.872,221.144 L241.072,221.144 L241.072,245.464 Z M306.472889,207 L296.424889,214.552 L292.968889,214.552 L301.864889,207 L306.472889,207 Z M284.840889,260.056 L312.488889,260.056 L312.488889,263 L281.576889,263 L281.576889,218.2 L311.528889,218.2 L311.528889,221.144 L284.840889,221.144 L284.840889,238.808 L308.712889,238.808 L308.712889,241.688 L284.840889,241.688 L284.840889,260.056 Z M333.857778,263.32 C327.201778,263.32 320.801778,260.824 317.537778,257.24 L319.009778,254.808 C322.081778,258.008 327.777778,260.44 333.793778,260.44 C342.753778,260.44 346.721778,256.536 346.721778,251.672 C346.721778,238.232 318.753778,246.296 318.753778,229.784 C318.753778,223.448 323.617778,217.88 334.625778,217.88 C339.553778,217.88 344.673778,219.416 348.129778,221.912 L346.913778,224.536 C343.201778,221.976 338.657778,220.76 334.625778,220.76 C325.921778,220.76 322.017778,224.792 322.017778,229.72 C322.017778,243.16 349.985778,235.224 349.985778,251.48 C349.985778,257.816 344.929778,263.32 333.857778,263.32 Z M362.010667,260.056 L389.658667,260.056 L389.658667,263 L358.746667,263 L358.746667,218.2 L388.698667,218.2 L388.698667,221.144 L362.010667,221.144 L362.010667,238.808 L385.882667,238.808 L385.882667,241.688 L362.010667,241.688 L362.010667,260.056 Z M432.723556,263 L426.963556,250.392 L400.979556,250.392 L395.283556,263 L391.763556,263 L412.371556,218.2 L415.635556,218.2 L436.243556,263 L432.723556,263 Z M402.259556,247.64 L425.747556,247.64 L413.971556,221.784 L402.259556,247.64 Z M458.636445,263.32 C447.500445,263.32 440.716445,256.792 440.716445,243.992 L440.716445,218.2 L443.980445,218.2 L443.980445,243.864 C443.980445,255.064 449.356445,260.312 458.700445,260.312 C468.044445,260.312 473.356445,255.064 473.356445,243.864 L473.356445,218.2 L476.620445,218.2 L476.620445,243.992 C476.620445,256.792 469.772445,263.32 458.636445,263.32 Z M503.678223,263 L503.678223,218.2 L521.406223,218.2 C535.614223,218.2 545.214223,227.544 545.214223,240.6 C545.214223,253.656 535.614223,263 521.406223,263 L503.678223,263 Z M506.942223,260.056 L521.150223,260.056 C533.822223,260.056 541.950223,251.992 541.950223,240.6 C541.950223,229.208 533.822223,221.144 521.150223,221.144 L506.942223,221.144 L506.942223,260.056 Z M551.863112,215.256 C553.463112,215.256 554.551112,216.536 554.551112,217.944 C554.551112,218.904 554.359112,219.544 553.975112,220.888 L551.479112,229.592 L549.175112,229.592 L551.287112,220.568 C550.007112,220.248 549.175112,219.288 549.175112,217.944 C549.175112,216.408 550.327112,215.256 551.863112,215.256 Z M567.024001,260.056 L594.672001,260.056 L594.672001,263 L563.760001,263 L563.760001,218.2 L593.712001,218.2 L593.712001,221.144 L567.024001,221.144 L567.024001,238.808 L590.896001,238.808 L590.896001,241.688 L567.024001,241.688 L567.024001,260.056 Z M637.48089,218.2 L640.74489,218.2 L640.74489,263 L638.05689,263 L607.52889,224.088 L607.52889,263 L604.26489,263 L604.26489,218.2 L607.01689,218.2 L637.48089,257.112 L637.48089,218.2 Z M662.625779,263 L662.625779,221.144 L646.497779,221.144 L646.497779,218.2 L682.017779,218.2 L682.017779,221.144 L665.889779,221.144 L665.889779,263 L662.625779,263 Z M722.586668,263 L718.874668,263 L708.186668,248.024 C706.778668,248.216 705.370668,248.344 703.834668,248.344 L691.034668,248.344 L691.034668,263 L687.770668,263 L687.770668,218.2 L703.834668,218.2 C715.098668,218.2 721.882668,223.832 721.882668,233.304 C721.882668,240.408 718.042668,245.336 711.386668,247.32 L722.586668,263 Z M691.034668,245.464 L703.834668,245.464 C713.434668,245.464 718.554668,240.984 718.554668,233.304 C718.554668,225.56 713.434668,221.144 703.834668,221.144 L691.034668,221.144 L691.034668,245.464 Z M765.011557,263 L759.251557,250.392 L733.267557,250.392 L727.571557,263 L724.051557,263 L744.659557,218.2 L747.923557,218.2 L768.531557,263 L765.011557,263 Z M734.547557,247.64 L758.035557,247.64 L746.259557,221.784 L734.547557,247.64 Z M774.348446,263 L774.348446,218.2 L777.612446,218.2 L777.612446,263 L774.348446,263 Z M790.917335,263 L790.917335,218.2 L808.645335,218.2 C822.853335,218.2 832.453335,227.544 832.453335,240.6 C832.453335,253.656 822.853335,263 808.645335,263 L790.917335,263 Z M794.181335,260.056 L808.389335,260.056 C821.061335,260.056 829.189335,251.992 829.189335,240.6 C829.189335,229.208 821.061335,221.144 808.389335,221.144 L794.181335,221.144 L794.181335,260.056 Z M844.734224,260.056 L872.382224,260.056 L872.382224,263 L841.470224,263 L841.470224,218.2 L871.422224,218.2 L871.422224,221.144 L844.734224,221.144 L844.734224,238.808 L868.606224,238.808 L868.606224,241.688 L844.734224,241.688 L844.734224,260.056 Z M915.056002,263.32 C901.744002,263.32 891.824002,253.656 891.824002,240.6 C891.824002,227.544 901.744002,217.88 915.056002,217.88 C921.392002,217.88 927.088002,219.928 930.992002,224.088 L928.944002,226.2 C925.104002,222.424 920.432002,220.888 915.184002,220.888 C903.728002,220.888 895.088002,229.336 895.088002,240.6 C895.088002,251.864 903.728002,260.312 915.184002,260.312 C920.432002,260.312 925.104002,258.712 928.944002,254.936 L930.992002,257.048 C927.088002,261.208 921.392002,263.32 915.056002,263.32 Z M957.672892,263.32 C944.296892,263.32 934.376892,253.592 934.376892,240.6 C934.376892,227.608 944.296892,217.88 957.672892,217.88 C970.984892,217.88 980.968892,227.544 980.968892,240.6 C980.968892,253.656 970.984892,263.32 957.672892,263.32 Z M957.672892,260.312 C969.064892,260.312 977.640892,251.928 977.640892,240.6 C977.640892,229.272 969.064892,220.888 957.672892,220.888 C946.216892,220.888 937.640892,229.272 937.640892,240.6 C937.640892,251.928 946.216892,260.312 957.672892,260.312 Z M1023.20178,218.2 L1026.46578,218.2 L1026.46578,263 L1023.77778,263 L993.249781,224.088 L993.249781,263 L989.985781,263 L989.985781,218.2 L992.737781,218.2 L1023.20178,257.112 L1023.20178,218.2 Z M1048.34667,263 L1048.34667,221.144 L1032.21867,221.144 L1032.21867,218.2 L1067.73867,218.2 L1067.73867,221.144 L1051.61067,221.144 L1051.61067,263 L1048.34667,263 Z M1108.30756,263 L1104.59556,263 L1093.90756,248.024 C1092.49956,248.216 1091.09156,248.344 1089.55556,248.344 L1076.75556,248.344 L1076.75556,263 L1073.49156,263 L1073.49156,218.2 L1089.55556,218.2 C1100.81956,218.2 1107.60356,223.832 1107.60356,233.304 C1107.60356,240.408 1103.76356,245.336 1097.10756,247.32 L1108.30756,263 Z M1076.75556,245.464 L1089.55556,245.464 C1099.15556,245.464 1104.27556,240.984 1104.27556,233.304 C1104.27556,225.56 1099.15556,221.144 1089.55556,221.144 L1076.75556,221.144 L1076.75556,245.464 Z M1120.52445,260.056 L1148.17245,260.056 L1148.17245,263 L1117.26045,263 L1117.26045,218.2 L1147.21245,218.2 L1147.21245,221.144 L1120.52445,221.144 L1120.52445,238.808 L1144.39645,238.808 L1144.39645,241.688 L1120.52445,241.688 L1120.52445,260.056 Z M1171.90223,263 L1171.90223,218.2 L1175.16623,218.2 L1175.16623,260.056 L1200.95823,260.056 L1200.95823,263 L1171.90223,263 Z M1202.67911,215.256 C1204.27911,215.256 1205.36711,216.536 1205.36711,217.944 C1205.36711,218.904 1205.17511,219.544 1204.79111,220.888 L1202.29511,229.592 L1199.99111,229.592 L1202.10311,220.568 C1200.82311,220.248 1199.99111,219.288 1199.99111,217.944 C1199.99111,216.408 1201.14311,215.256 1202.67911,215.256 Z M1239.472,207 L1229.424,214.552 L1225.968,214.552 L1234.864,207 L1239.472,207 Z M1217.84,260.056 L1245.488,260.056 L1245.488,263 L1214.576,263 L1214.576,218.2 L1244.528,218.2 L1244.528,221.144 L1217.84,221.144 L1217.84,238.808 L1241.712,238.808 L1241.712,241.688 L1217.84,241.688 L1217.84,260.056 Z M1271.14489,218.2 C1282.40889,218.2 1289.19289,223.832 1289.19289,233.304 C1289.19289,242.712 1282.40889,248.344 1271.14489,248.344 L1258.34489,248.344 L1258.34489,263 L1255.08089,263 L1255.08089,218.2 L1271.14489,218.2 Z M1271.14489,245.4 C1280.74489,245.4 1285.86489,240.984 1285.86489,233.304 C1285.86489,225.56 1280.74489,221.144 1271.14489,221.144 L1258.34489,221.144 L1258.34489,245.4 L1271.14489,245.4 Z M1297.88978,263 L1297.88978,218.2 L1301.15378,218.2 L1301.15378,263 L1297.88978,263 Z M1314.45867,263 L1314.45867,218.2 L1332.18667,218.2 C1346.39467,218.2 1355.99467,227.544 1355.99467,240.6 C1355.99467,253.656 1346.39467,263 1332.18667,263 L1314.45867,263 Z M1317.72267,260.056 L1331.93067,260.056 C1344.60267,260.056 1352.73067,251.992 1352.73067,240.6 C1352.73067,229.208 1344.60267,221.144 1331.93067,221.144 L1317.72267,221.144 L1317.72267,260.056 Z M1389.90756,207 L1379.85956,214.552 L1376.40356,214.552 L1385.29956,207 L1389.90756,207 Z M1368.27556,260.056 L1395.92356,260.056 L1395.92356,263 L1365.01156,263 L1365.01156,218.2 L1394.96356,218.2 L1394.96356,221.144 L1368.27556,221.144 L1368.27556,238.808 L1392.14756,238.808 L1392.14756,241.688 L1368.27556,241.688 L1368.27556,260.056 Z M1451.08445,263 L1447.88445,263 L1447.82045,224.664 L1429.06845,257.048 L1427.46845,257.048 L1408.71645,224.792 L1408.71645,263 L1405.51645,263 L1405.51645,218.2 L1408.26845,218.2 L1428.30045,252.824 L1448.33245,218.2 L1451.02045,218.2 L1451.08445,263 Z M1464.38934,263 L1464.38934,218.2 L1467.65334,218.2 L1467.65334,263 L1464.38934,263 Z M1484.22223,260.056 L1511.87023,260.056 L1511.87023,263 L1480.95823,263 L1480.95823,218.2 L1510.91023,218.2 L1510.91023,221.144 L1484.22223,221.144 L1484.22223,238.808 L1508.09423,238.808 L1508.09423,241.688 L1484.22223,241.688 L1484.22223,260.056 Z"
              id="RÉSEAU-D’ENTRAIDE-CO" fill="#DC3C37" />
    </g>
</svg>
