<svg version="1" xmlns="http://www.w3.org/2000/svg" width="2000" height="2000" viewBox="0 0 1500.000000 1500.000000"><path d="M709 1.1c-147.9 8.2-290.5 60-407.9 148.2C88.8 308.8-22.8 563.4 4.1 827c20.3 199.5 120.1 382.5 277.4 508.5 112.7 90.3 248.7 146 391.5 160.4 107.2 10.9 214.5-.9 315-34.6 93.8-31.4 177.9-79.6 255-146.2 17.6-15.2 54.4-51.8 70-69.6 95.7-109.5 156.7-240.1 178.4-382.5 18.9-123.1 6.1-252-36.4-369-69.5-191.3-213.7-346-400.3-429.4C948 16.8 827.1-5.3 709 1.1zm72 327.5c63.2 6.8 122.6 35.6 168 81.3 22.5 22.6 39.2 45.7 52.9 73.1 37.7 75.4 39.7 162.5 5.6 240.3-2.6 5.9-36.9 68.7-76.2 139.5-39.2 70.8-93.3 168.2-120.1 216.6-38 68.6-49.4 88.4-52.1 90.5-3 2.2-4.4 2.6-10.6 2.6-6.2 0-7.6-.4-10.6-2.6-2.7-2.1-27.6-46.2-122.6-217.5-65.5-118.2-120.2-217.2-121.6-219.9-12.4-25.1-21.1-53.6-25.8-84.5-1.8-11.8-2.2-18.9-2.3-38-.1-30.7 2.8-52.2 10.5-78.9 9.8-34.1 29-71 51.5-99.1 9.8-12.2 31.2-33.4 43.3-42.9 61.2-48.3 132.8-69 210.1-60.5z"/><path d="M734.5 468.6c-32.7 3.6-61.6 16.9-84.4 38.9-20.9 20.1-34.4 44.6-40.7 73.6-2.6 11.9-2.7 41.9-.1 53.9 8.4 39 29.8 70.4 62.5 91.5 14.6 9.4 35 17.2 52.4 20 11.9 1.9 33.7 1.9 45.6 0 57.3-9.3 103.3-54.3 114.9-112.2 2.7-13.5 2.4-40.5-.6-54.3-6-27.9-18.3-50.3-38.5-70.5-20.9-20.8-43.9-33.2-72.1-38.6-9.7-1.9-30.9-3.1-39-2.3z"/></svg>