<?xml version="1.0" encoding="UTF-8"?>
<svg viewBox="0 0 1413 181" xmlns="http://www.w3.org/2000/svg">
    <g fill="none" fill-rule="evenodd">
        <path d="M60.5 0C27.14 0 0 27.066 0 60.333a60.314 60.314 0 007.264 28.672l49.928 90.05A3.778 3.778 0 0060.5 181a3.778 3.778 0 003.308-1.944l49.947-90.08A60.308 60.308 0 00121 60.332C121 27.066 93.86 0 60.5 0zM60 90c-16.542 0-30-13.458-30-30s13.458-30 30-30 30 13.458 30 30-13.458 30-30 30z"
              fill="#DC3C37" fill-rule="nonzero"/>
        <path d="M257.168 89.94c0 1.919-.24 4.437-.36 6.356h-45.505c1.916 5.037 6.467 7.676 13.173 7.676 5.987 0 9.34-1.56 13.652-4.797l14.13 14.271c-6.347 6.956-15.567 10.554-28.62 10.554C199.568 124 184 109.489 184 89.94 184 70.032 199.927 56 221.123 56c19.4 0 36.045 11.753 36.045 33.94zm-35.806-15.47c-5.628 0-9.46 3.237-10.538 8.754H231.9c-1.077-5.517-5.03-8.755-10.538-8.755zM311.176 56C326.264 56 338 64.755 338 85.383V122.8h-27.064V90.06c0-8.155-3.113-11.273-8.023-11.273-5.509 0-10.179 3.478-10.179 13.192V122.8H265.67V57.199h25.747v6.476C296.567 58.52 303.512 56 311.176 56z"
              fill="#DC3C37"/>
        <path d="M392.821 55.732c17.168 0 31.695 12.981 31.695 34.136s-14.527 34.016-31.695 34.016c-7.203 0-12.726-1.803-16.688-5.65V146H349V56.934h25.812v5.409c3.962-4.447 9.845-6.611 18.009-6.611zm-6.483 46.997c6.003 0 10.685-4.327 10.685-12.861s-4.682-12.981-10.685-12.981-10.685 4.447-10.685 12.981c0 8.534 4.682 12.861 10.685 12.861zm72.515-38.703c4.802-5.53 12.126-8.294 21.25-8.294v24.04c-2.401-.361-4.082-.481-6.003-.481-8.164 0-13.927 3.726-13.927 14.183v29.208H433.04V56.934h25.813v7.092zm98.207 25.722c0 1.923-.24 4.447-.36 6.37h-45.622c1.92 5.049 6.483 7.693 13.206 7.693 6.003 0 9.365-1.563 13.687-4.808l14.167 14.303c-6.363 6.972-15.608 10.578-28.694 10.578-24.132 0-39.74-14.544-39.74-34.136 0-19.953 15.968-34.016 37.219-34.016 19.449 0 36.137 11.78 36.137 34.016zm-35.897-15.506c-5.643 0-9.485 3.246-10.565 8.775h21.13c-1.08-5.53-5.043-8.775-10.565-8.775zm131.343-18.51c14.887 0 26.172 8.774 26.172 29.448v37.502h-27.133V89.868c0-8.173-3.001-11.299-7.323-11.299-4.803 0-8.524 3.246-8.524 12.02v32.093h-27.133V89.868c0-8.173-2.762-11.299-7.324-11.299-4.802 0-8.524 3.246-8.524 12.02v32.093h-27.133V56.934h25.812v6.13c4.923-4.928 11.406-7.332 18.61-7.332 8.523 0 15.967 3.125 20.53 9.976 5.282-6.37 12.965-9.976 21.97-9.976zm51.505-4.087c-9.965 0-16.328-6.01-16.328-13.822 0-7.813 6.363-13.823 16.328-13.823 9.964 0 16.327 5.53 16.327 13.342 0 8.293-6.363 14.303-16.327 14.303zm-13.567 71.037V56.934h27.133v65.748h-27.133zm109.012-32.934c0 1.923-.24 4.447-.36 6.37h-45.622c1.921 5.049 6.483 7.693 13.207 7.693 6.002 0 9.364-1.563 13.686-4.808l14.167 14.303c-6.363 6.972-15.608 10.578-28.694 10.578-24.131 0-39.739-14.544-39.739-34.136 0-19.953 15.968-34.016 37.218-34.016 19.45 0 36.137 11.78 36.137 34.016zM763.56 74.242c-5.643 0-9.484 3.246-10.565 8.775h21.13c-1.08-5.53-5.042-8.775-10.565-8.775zm70.234-10.216c4.802-5.53 12.126-8.294 21.25-8.294v24.04c-2.401-.361-4.082-.481-6.003-.481-8.164 0-13.927 3.726-13.927 14.183v29.208H807.98V56.934h25.813v7.092zM932 89.748c0 1.923-.24 4.447-.36 6.37h-45.622c1.92 5.049 6.483 7.693 13.206 7.693 6.003 0 9.365-1.563 13.687-4.808l14.167 14.303c-6.363 6.972-15.608 10.578-28.694 10.578-24.132 0-39.74-14.544-39.74-34.136 0-19.953 15.968-34.016 37.219-34.016 19.449 0 36.137 11.78 36.137 34.016zm-35.897-15.506c-5.643 0-9.485 3.246-10.565 8.775h21.13c-1.08-5.53-5.043-8.775-10.565-8.775z"
              fill="#004AAD"/>
        <path d="M941 122.52V33.48h27.143v89.04H941zm52.725-70.92c-9.969 0-16.334-6-16.334-13.8 0-7.8 6.365-13.8 16.334-13.8 9.968 0 16.334 5.52 16.334 13.32 0 8.28-6.366 14.28-16.334 14.28zm-13.572 70.92V56.88h27.143v65.64h-27.143zm86.714-65.64h25.822v52.56c0 25.44-14.893 37.56-39.994 37.56-12.971 0-24.741-2.76-32.908-8.16l9.128-18.48c5.164 3.96 13.931 6.48 21.017 6.48 11.17 0 15.614-4.92 15.614-13.68v-1.2c-4.084 4.68-10.089 6.96-18.136 6.96-16.694 0-31.587-12.24-31.587-31.68 0-19.44 14.893-31.56 31.587-31.56 9.008 0 15.373 2.76 19.457 8.64v-7.44zm-12.25 40.92c6.365 0 11.169-4.2 11.169-10.56s-4.804-10.44-11.17-10.44c-6.365 0-11.29 4.08-11.29 10.44 0 6.36 4.925 10.56 11.29 10.56zm95.72-42.12c15.133 0 26.903 8.76 26.903 29.4v37.44h-27.143V89.76c0-8.16-3.122-11.28-8.047-11.28-5.524 0-10.208 3.48-10.208 13.2v30.84h-27.143V56.88h25.822v6.48c5.164-5.16 12.13-7.68 19.816-7.68zm109.773 33.96c0 1.92-.24 4.44-.36 6.36h-45.639c1.922 5.04 6.486 7.68 13.212 7.68 6.005 0 9.368-1.56 13.691-4.8l14.172 14.28c-6.365 6.96-15.613 10.56-28.704 10.56-24.14 0-39.754-14.52-39.754-34.08 0-19.92 15.974-33.96 37.232-33.96 19.456 0 36.15 11.76 36.15 33.96zm-35.91-15.48c-5.645 0-9.488 3.24-10.569 8.76h21.138c-1.081-5.52-5.044-8.76-10.569-8.76zm56.688 49.56c-9.008 0-15.853-6.48-15.853-15.6 0-9.24 6.845-15.36 15.853-15.36s15.853 6.12 15.853 15.36c0 9.12-6.845 15.6-15.853 15.6zm53.565-63.36v.12h14.293v19.8h-13.452v42.24h-27.143V80.28h-9.007v-19.8h9.007v-.36c0-16.92 10.57-27.84 29.305-27.84 5.765 0 12.13 1.08 16.094 3.24l-6.486 18.84c-1.801-.84-3.963-1.56-6.125-1.56-3.843 0-6.486 2.28-6.486 7.56zm57.289 3.6c4.804-5.52 12.13-8.28 21.258-8.28v24c-2.402-.36-4.083-.48-6.005-.48-8.167 0-13.932 3.72-13.932 14.16v29.16h-27.143V56.88h25.822v7.08z"
              fill="#DC3C37"/>
    </g>
</svg>
